<svg width="512" height="512" viewBox="0 0 512 512" fill="none" xmlns="http://www.w3.org/2000/svg">
<g clip-path="url(#clip0_364_102)">
<path d="M448 0H64C28.6538 0 0 28.6538 0 64V448C0 483.346 28.6538 512 64 512H448C483.346 512 512 483.346 512 448V64C512 28.6538 483.346 0 448 0Z" fill="url(#paint0_linear_364_102)"/>
<path d="M435.2 32H76.8C52.0576 32 32 52.0576 32 76.8V435.2C32 459.942 52.0576 480 76.8 480H435.2C459.942 480 480 459.942 480 435.2V76.8C480 52.0576 459.942 32 435.2 32Z" fill="url(#paint1_linear_364_102)"/>
<path d="M428.8 64H83.2C72.5961 64 64 72.5961 64 83.2V428.8C64 439.404 72.5961 448 83.2 448H428.8C439.404 448 448 439.404 448 428.8V83.2C448 72.5961 439.404 64 428.8 64Z" fill="url(#paint2_linear_364_102)"/>
<path d="M226.355 384.563C216.115 384.563 210.381 377.6 206.694 370.636L165.734 286.259C161.638 278.476 160 273.152 160 265.779C160 254.72 166.963 249.804 176.384 250.624C181.709 251.033 187.853 252.262 195.635 252.262C214.477 252.262 223.488 241.612 223.488 209.254V180.582C223.488 159.692 221.44 149.862 210.79 149.862C200.55 149.862 197.683 160.512 197.683 173.209V182.22C197.683 188.364 198.093 192.051 198.093 196.556C198.093 206.796 193.178 214.579 182.118 214.579C171.878 214.579 165.734 209.254 164.506 199.424C164.096 196.147 163.686 188.774 163.686 184.268V176.486C163.686 140.032 179.661 121.6 210.79 121.6C243.149 121.6 258.304 139.212 258.304 187.136V203.929C258.304 262.912 234.957 280.934 202.598 280.934H202.189L240.282 359.168C246.426 371.865 239.462 384.563 226.355 384.563ZM298.035 384.563C287.795 384.563 280.422 375.961 280.422 366.131V140.851C280.422 132.249 287.386 126.105 295.578 126.105H337.766C345.958 126.105 352.922 132.249 352.922 140.851C352.922 149.862 345.958 156.825 337.766 156.825H316.058V366.131C316.058 375.961 308.275 384.563 298.035 384.563Z" fill="url(#paint3_linear_364_102)"/>
</g>
<defs>
<linearGradient id="paint0_linear_364_102" x1="0" y1="0" x2="341.84" y2="607.715" gradientUnits="userSpaceOnUse">
<stop stop-color="#8C8C8C"/>
<stop offset="1" stop-color="#ECECEC"/>
</linearGradient>
<linearGradient id="paint1_linear_364_102" x1="32" y1="32" x2="331.11" y2="563.751" gradientUnits="userSpaceOnUse">
<stop stop-color="#212121"/>
<stop offset="1" stop-color="#606060"/>
</linearGradient>
<linearGradient id="paint2_linear_364_102" x1="64" y1="64" x2="320.38" y2="519.786" gradientUnits="userSpaceOnUse">
<stop stop-color="#797979"/>
<stop offset="1" stop-color="#ECECEC"/>
</linearGradient>
<linearGradient id="paint3_linear_364_102" x1="144.85" y1="74.4995" x2="328.243" y2="442.026" gradientUnits="userSpaceOnUse">
<stop stop-color="#252525"/>
<stop offset="1" stop-color="#505050"/>
</linearGradient>
<clipPath id="clip0_364_102">
<rect width="512" height="512" fill="white"/>
</clipPath>
</defs>
</svg>
